Coordinates
version=1
nRows=54
nColumns=12
inDegrees=yes

Units are S.I. units (second, meters, Newtons, ...)
Angles are in degrees

endheader
time	SC_y	SC_z	SC_x	AC_y	AC_z	AC_x	GH_y	GH_z	GH_yy	EL_x	PS_y
       0.0              -40.45          35.55          48.45          45.35          4.049         -10.64          34.82          40.47          77.95           66.2          117.4
   0.04018              -40.45          35.55          48.44          45.36           4.05         -10.64          34.83          40.47          77.93           66.2          117.4
   0.08036              -40.44          35.54          48.44          45.36           4.05         -10.64          34.85          40.46           77.9          66.21          117.4
    0.1205              -40.44          35.54          48.43          45.36          4.051         -10.64          34.87          40.46          77.87          66.21          117.3
    0.1607              -40.43          35.53          48.43          45.36          4.052         -10.64          34.89          40.45          77.83          66.21          117.3
    0.2009              -40.43          35.52          48.43          45.36          4.052         -10.64          34.91          40.45           77.8          66.22          117.3
    0.2411              -40.42          35.51          48.42          45.37          4.053         -10.64          34.94          40.44          77.76          66.22          117.3
    0.2813              -40.42          35.51          48.42          45.37          4.054         -10.64          34.96          40.43          77.72          66.22          117.2
    0.3214              -40.41           35.5          48.41          45.37          4.055         -10.64          34.99          40.43          77.68          66.23          117.2
    0.3616               -40.4          35.49          48.41          45.37          4.056         -10.64          35.02          40.42          77.63          66.23          117.2
    0.4018               -40.4          35.48           48.4          45.38          4.057         -10.64          35.05          40.41          77.58          66.24          117.2
     0.442              -40.39          35.47          48.39          45.38          4.058         -10.64          35.09           40.4          77.52          66.24          117.1
    0.4821              -40.38          35.45          48.39          45.38          4.059         -10.64          35.12          40.39          77.47          66.25          117.1
    0.5223              -40.37          35.44          48.38          45.39          4.061         -10.65          35.16          40.38           77.4          66.26          117.1
    0.5625              -40.36          35.43          48.37          45.39          4.062         -10.65           35.2          40.37          77.34          66.26          117.0
    0.6027              -40.35          35.41          48.36           45.4          4.064         -10.65          35.25          40.36          77.26          66.27          117.0
    0.6429              -40.34           35.4          48.35           45.4          4.065         -10.65           35.3          40.35          77.18          66.28          116.9
     0.683              -40.33          35.38          48.34          45.41          4.067         -10.65          35.36          40.34          77.09          66.29          116.9
    0.7232              -40.32          35.36          48.33          45.41          4.069         -10.65          35.42          40.32           77.0           66.3          116.8
    0.7634               -40.3          35.34          48.32          45.42          4.071         -10.65          35.48          40.31          76.89          66.31          116.8
    0.8036              -40.29          35.31           48.3          45.43          4.074         -10.65          35.55          40.29          76.78          66.32          116.7
    0.8438              -40.27          35.29          48.29          45.43          4.076         -10.65          35.63          40.27          76.65          66.34          116.6
    0.8839              -40.25          35.26          48.27          45.44          4.079         -10.66          35.72          40.25          76.51          66.35          116.5
    0.9241              -40.23          35.23          48.25          45.45          4.082         -10.66          35.82          40.22          76.36          66.37          116.4
    0.9643               -40.2          35.19          48.23          45.46          4.086         -10.66          35.93           40.2          76.19          66.38          116.3
     1.004              -40.18          35.15          48.21          45.47           4.09         -10.66          36.05          40.17           76.0           66.4          116.2
     1.045              -40.15          35.11          48.18          45.49          4.094         -10.66          36.18          40.13          75.78          66.43          116.1
     1.085              -40.11          35.06          48.16           45.5          4.099         -10.67          36.33           40.1          75.54          66.45          116.0
     1.125              -40.08          35.01          48.12          45.52          4.105         -10.67           36.5          40.05          75.27          66.48          115.8
     1.165              -40.03          34.94          48.09          45.54          4.111         -10.67           36.7          40.01          74.96          66.51          115.6
     1.205              -39.98          34.87          48.04          45.56          4.119         -10.68          36.92          39.95           74.6          66.55          115.4
     1.246              -39.93          34.79          47.99          45.58          4.127         -10.68          37.18          39.89           74.2          66.59          115.2
     1.286              -39.86          34.69          47.94          45.61          4.137         -10.69          37.47          39.82          73.73          66.64          114.9
     1.326              -39.79          34.58          47.87          45.65          4.148          -10.7          37.81          39.73          73.19           66.7          114.6
     1.366               -39.7          34.45           47.8          45.69          4.161          -10.7          38.21          39.63          72.55          66.76          114.2
     1.406              -39.59           34.3          47.71          45.73          4.177         -10.71          38.68          39.52           71.8          66.84          113.8
     1.446              -39.47          34.12           47.6          45.79          4.196         -10.72          39.24          39.38          70.91          66.93          113.2
     1.487              -39.32           33.9          47.47          45.85          4.218         -10.74          39.92          39.22          69.84          67.04          112.6
     1.527              -39.14          33.63          47.32          45.93          4.245         -10.75          40.73          39.02          68.54          67.18          111.9
     1.567              -38.92          33.31          47.13          46.03          4.278         -10.77          41.72          38.77          66.96          67.34          110.9
     1.607              -38.65          32.91          46.89          46.15          4.318          -10.8          42.95          38.47          65.01          67.55          109.8
     1.647              -38.31          32.42           46.6           46.3          4.369         -10.82          44.48           38.1          62.58           67.8          108.4
     1.688              -37.88          31.79          46.23          46.48          4.432         -10.86           46.4          37.62          59.52          68.12          106.6
     1.728              -37.34           31.0          45.77          46.72          4.513         -10.91          48.85          37.02          55.62          68.52          104.3
     1.768              -36.65          29.98          45.17          47.03          4.617         -10.97          51.98          36.25          50.64          69.04          101.3
     1.808              -35.76          28.68           44.4          47.42           4.75         -11.05           56.0          35.26          44.24           69.7          97.58
     1.848              -34.62          27.01          43.42          47.92           4.92         -11.15          61.14           34.0          36.07          70.55          92.78
     1.888              -33.19          24.91          42.19          48.55          5.133         -11.27           67.6          32.42          25.79          71.62          86.74
     1.929              -31.44          22.36          40.69          49.31          5.394         -11.42          75.47          30.48          13.27          72.92          79.39
     1.969              -29.42           19.4          38.95           50.2          5.695          -11.6          84.59          28.24         -1.247          74.43          70.86
     2.009              -27.23          16.19          37.07          51.16          6.022         -11.79          94.46          25.82         -16.96          76.07          61.63
     2.049              -25.05          12.98          35.18          52.12          6.349         -11.98          104.3          23.39         -32.68           77.7           52.4
     2.089              -23.02          10.02          33.44          53.01           6.65         -12.15          113.5          21.15         -47.19          79.21          43.88
     2.129              -21.28          7.468          31.94          53.78          6.911          -12.3          121.3          19.21         -59.72          80.51          36.52
